# xmcd
#
# Track frame offsets:
#	150
#	19282
#	43729
#	59823
#	82846
#	106080
#	118065
#	138295
#	161112
#	175701
#	195017
#	216363
#	238193
#	249684
#	271660
#
# Disc length: 4200 seconds
#
# Revision: 0
# Processed by: cddbd v1.5.1PL0 Copyright (c) Steve Scherf et al.
# Submitted via: audiograbber 1.83.01
#
DISCID=ce10660f
DTITLE=Maria Bill - Jung and schön
DYEAR=2004
DGENRE=
TTITLE0=Immer wieder irgendwas
TTITLE1=I will bei dir sein
TTITLE2=Fluchtachtel
TTITLE3=Café de Flor
TTITLE4=Kaktus
TTITLE5=E a a O a
TTITLE6=Lass
TTITLE7=I bin a Lady (Your're a lady)
TTITLE8=Meine Schuhe
TTITLE9=Weggerannt
TTITLE10=Dieser Mann da
TTITLE11=I mecht landen
TTITLE12=Geliebter (Mathilde)
TTITLE13=Jung und schön
TTITLE14=Der letzte G'spritzte
EXTD=
EXTT0=
EXTT1=
EXTT2=
EXTT3=
EXTT4=
EXTT5=
EXTT6=
EXTT7=
EXTT8=
EXTT9=
EXTT10=
EXTT11=
EXTT12=
EXTT13=
EXTT14=
PLAYORDER=
